<svg width="123" height="123" viewBox="0 0 123 123" fill="none" xmlns="http://www.w3.org/2000/svg">
<rect width="123" height="123" fill="rgba(0,0,0,0)"/>
<circle cx="61.5" cy="61.5" r="61.5" fill="#4886FF"/>
<path d="M64.8198 90H57.3223V46.1494H64.8198V90ZM56.7144 34.5181C56.7144 33.3022 57.0791 32.2756 57.8086 31.438C58.5651 30.6004 59.6729 30.1816 61.1318 30.1816C62.5908 30.1816 63.6986 30.6004 64.4551 31.438C65.2116 32.2756 65.5898 33.3022 65.5898 34.5181C65.5898 35.7339 65.2116 36.7471 64.4551 37.5576C63.6986 38.3682 62.5908 38.7734 61.1318 38.7734C59.6729 38.7734 58.5651 38.3682 57.8086 37.5576C57.0791 36.7471 56.7144 35.7339 56.7144 34.5181Z" fill="white"/>
</svg>
